<?xml version="1.0" standalone="no"?><!DOCTYPE svg PUBLIC "-//W3C//DTD SVG 1.1//EN" "http://www.w3.org/Graphics/SVG/1.1/DTD/svg11.dtd">
<svg t="1730882015582" class="icon" viewBox="0 0 1024 1024" version="1.1"
    xmlns="http://www.w3.org/2000/svg" p-id="4570"
    xmlns:xlink="http://www.w3.org/1999/xlink" width="200" height="200">
    <path d="M281.6 532.48l-61.44-61.44 122.88-122.88-61.44-61.44L570.026667 0l443.733333 443.733333-286.72 288.426667-61.44-61.44-122.88 122.88-59.733333-59.733333-63.146667 63.146666-409.6 6.826667 271.36-271.36z m324.266667 78.506667L404.48 409.6l-81.92 81.92 201.386667 201.386667 81.92-81.92z m122.88-1.706667l163.84-163.84L570.026667 122.88l-163.84 163.84 322.56 322.56z" fill="rgba(0, 0, 0, 0.88)" p-id="4571"></path>
    <path d="M92.16 889.173333h853.333333c25.6 0 44.373333 20.48 44.373334 44.373334v44.373333c0 25.6-20.48 44.373333-44.373334 44.373333h-853.333333c-25.6 0-44.373333-20.48-44.373333-44.373333v-44.373333c0-23.893333 18.773333-44.373333 44.373333-44.373334z" fill="currentColor" p-id="4572" data-spm-anchor-id="a313x.search_index.0.i24.502c3a815fxxtl" class="selected"></path>
</svg>