<?xml version="1.0" standalone="no"?><!DOCTYPE svg PUBLIC "-//W3C//DTD SVG 1.1//EN" "http://www.w3.org/Graphics/SVG/1.1/DTD/svg11.dtd"><svg t="1732855987031" class="icon" viewBox="0 0 1024 1024" version="1.1" xmlns="http://www.w3.org/2000/svg" p-id="26712" xmlns:xlink="http://www.w3.org/1999/xlink" width="256" height="256"><path d="M673 625V143c0-17.7 14.3-32 32-32h176c17.7 0 32 14.3 32 32v482c0 17.7-14.3 32-32 32H705c-17.7 0-32-14.3-32-32z m64-450v418h112V175H737zM111 625V143c0-17.7 14.3-32 32-32h176c17.7 0 32 14.3 32 32v482c0 17.7-14.3 32-32 32H143c-17.7 0-32-14.3-32-32z m64-450v418h112V175H175zM392 881V466c0-17.7 14.3-32 32-32h176c17.7 0 32 14.3 32 32v415c0 17.7-14.3 32-32 32H424c-17.7 0-32-14.3-32-32z m64-383v351h112V498H456z" fill="#2c2c2c" p-id="26713" data-spm-anchor-id="a313x.search_index.0.i17.54fb3a81CPrGqP" class=""></path><path d="M542.3 251.4l73.9-94.6c1.1-1.4 1.7-3.1 1.7-4.9 0-4.4-3.6-8-8-8h-36.7c-4.9 0-9.6 2.3-12.6 6.1l-48.7 62.4-48.8-62.4c-3-3.9-7.7-6.2-12.6-6.2h-36.7c-1.8 0-3.5 0.6-4.9 1.7-3.5 2.7-4.1 7.7-1.4 11.2l73.9 94.6-73.1 93.7c-1.1 1.4-1.7 3.1-1.7 4.9 0 4.4 3.6 8 8 8h36.7c4.9 0 9.6-2.3 12.6-6.1l47.9-61.4 47.9 61.4c3 3.9 7.7 6.2 12.6 6.2H609c1.8 0 3.5-0.6 4.9-1.7 3.5-2.7 4.1-7.7 1.4-11.2l-73-93.7z" fill="#d81e06" p-id="26714" data-spm-anchor-id="a313x.search_index.0.i18.54fb3a81CPrGqP" class="selected"></path></svg>