<?xml version="1.0" standalone="no"?><!DOCTYPE svg PUBLIC "-//W3C//DTD SVG 1.1//EN" "http://www.w3.org/Graphics/SVG/1.1/DTD/svg11.dtd"><svg t="1732856245365" class="icon" viewBox="0 0 1024 1024" version="1.1" xmlns="http://www.w3.org/2000/svg" p-id="36680" xmlns:xlink="http://www.w3.org/1999/xlink" width="256" height="256"><path d="M984.987 690.066a41.235 41.235 0 0 0-58.313 0l-83.42 83.42-83.42-83.42a41.235 41.235 0 0 0-58.314 0 41.235 41.235 0 0 0 0 58.313l83.42 83.42-83.42 83.387a41.235 41.235 0 0 0 0 58.313 41.235 41.235 0 0 0 58.313 0l83.42-83.42 83.387 83.454a41.235 41.235 0 0 0 58.313 0 41.235 41.235 0 0 0 0-58.313l-83.386-83.42 83.42-83.42a41.235 41.235 0 0 0 0-58.314z" fill="#d81e06" p-id="36681" data-spm-anchor-id="a313x.search_index.0.i46.54fb3a81CPrGqP" class="selected"></path><path d="M0 0v1024h672.988a256.813 256.813 0 0 1-62.036-82.47H390.208V698.702h233.745a257.306 257.306 0 0 1 83.157-83.867V392.877h234.42v203.15A256.4 256.4 0 0 1 1024 651.66V0z m316.902 941.53H82.47V698.702h234.432z m0-316.134H82.47V392.877h234.432z m0-305.826H82.47V82.47h234.432z m316.89 305.826H390.208V392.877h243.584z m0-305.826H390.208V82.47h243.584z m307.738 0H707.098V82.47H941.53z" fill="#2c2c2c" p-id="36682" data-spm-anchor-id="a313x.search_index.0.i45.54fb3a81CPrGqP" class=""></path></svg>