<?xml version="1.0" standalone="no"?><!DOCTYPE svg PUBLIC "-//W3C//DTD SVG 1.1//EN" "http://www.w3.org/Graphics/SVG/1.1/DTD/svg11.dtd"><svg t="1732855918613" class="icon" viewBox="0 0 1024 1024" version="1.1" xmlns="http://www.w3.org/2000/svg" p-id="23509" data-spm-anchor-id="a313x.search_index.0.i10.54fb3a81CPrGqP" xmlns:xlink="http://www.w3.org/1999/xlink" width="256" height="256"><path d="M399 673h482c17.7 0 32 14.3 32 32v176c0 17.7-14.3 32-32 32H399c-17.7 0-32-14.3-32-32V705c0-17.7 14.3-32 32-32z m450 64H431v112h418V737zM399 111h482c17.7 0 32 14.3 32 32v176c0 17.7-14.3 32-32 32H399c-17.7 0-32-14.3-32-32V143c0-17.7 14.3-32 32-32z m450 64H431v112h418V175zM143 392h415c17.7 0 32 14.3 32 32v176c0 17.7-14.3 32-32 32H143c-17.7 0-32-14.3-32-32V424c0-17.7 14.3-32 32-32z m383 64H175v112h351V456z" fill="#2c2c2c" p-id="23510" data-spm-anchor-id="a313x.search_index.0.i12.54fb3a81CPrGqP" class="selected"></path><path d="M803.6 512.4l73.9-94.6c1.1-1.4 1.7-3.1 1.7-4.9 0-4.4-3.6-8-8-8h-36.7c-4.9 0-9.6 2.3-12.6 6.2l-48.7 62.4-48.8-62.5c-3-3.9-7.7-6.2-12.7-6.2H675c-1.8 0-3.5 0.6-4.9 1.7-3.5 2.7-4.1 7.8-1.4 11.2l73.9 94.6-73.1 93.6c-1.1 1.4-1.7 3.1-1.7 4.9 0 4.4 3.6 8 8 8h36.7c4.9 0 9.6-2.3 12.6-6.2l47.9-61.3 48 61.3c3 3.9 7.7 6.2 12.6 6.2h36.7c1.8 0 3.5-0.6 4.9-1.7 3.5-2.7 4.1-7.7 1.4-11.2l-73-93.5z" fill="#d81e06" p-id="23511" data-spm-anchor-id="a313x.search_index.0.i11.54fb3a81CPrGqP" class=""></path></svg>