<?xml version="1.0" standalone="no"?><!DOCTYPE svg PUBLIC "-//W3C//DTD SVG 1.1//EN" "http://www.w3.org/Graphics/SVG/1.1/DTD/svg11.dtd"><svg t="1732856091747" class="icon" viewBox="0 0 1024 1024" version="1.1" xmlns="http://www.w3.org/2000/svg" p-id="28733" xmlns:xlink="http://www.w3.org/1999/xlink" width="256" height="256"><path d="M936.785171 154.024585v287.219513a12.487805 12.487805 0 0 1-12.487805 12.487804H330.727024a12.487805 12.487805 0 0 1-12.487804-12.487804v-287.219513a12.487805 12.487805 0 0 1 12.487804-12.487805h593.570342a12.487805 12.487805 0 0 1 12.487805 12.487805z m-99.902439 87.414635H418.141659v112.390243h418.741073v-112.390243zM936.785171 520.316878v349.658537a12.487805 12.487805 0 0 1-12.487805 12.487805H80.970927a12.487805 12.487805 0 0 1-12.487805-12.487805v-349.658537a12.487805 12.487805 0 0 1 12.487805-12.487805h843.326439a12.487805 12.487805 0 0 1 12.487805 12.487805z m-99.902439 87.389659H168.385561v174.829268h668.497171v-174.829268z" fill="#2c2c2c" p-id="28734" data-spm-anchor-id="a313x.search_index.0.i32.54fb3a81CPrGqP" class=""></path><path d="M157.995707 433.077073l130.322732-129.948097a18.282146 18.282146 0 0 0 1.998049-2.347708l1.273756-1.323707c0.374634-0.39961 0.449561-1.024 0.274732-1.82322 0.174829-0.79922 0.099902-1.42361-0.274732-1.823219l-1.273756-1.323707a18.282146 18.282146 0 0 0-1.998049-2.347708L157.995707 162.19161a12.487805 12.487805 0 0 0-17.657756 0L104.997463 197.557073a12.487805 12.487805 0 0 0 0 17.657756l42.533464 42.558439H80.970927a12.487805 12.487805 0 0 0-12.487805 12.487805v49.95122a12.487805 12.487805 0 0 0 12.487805 12.487805h71.430244l-47.403708 47.403707a12.487805 12.487805 0 0 0 0 17.657756L140.362927 433.077073a12.487805 12.487805 0 0 0 17.657756 0z" fill="#2977f9" p-id="28735" data-spm-anchor-id="a313x.search_index.0.i33.54fb3a81CPrGqP" class="selected"></path></svg>