<?xml version="1.0" standalone="no"?><!DOCTYPE svg PUBLIC "-//W3C//DTD SVG 1.1//EN" "http://www.w3.org/Graphics/SVG/1.1/DTD/svg11.dtd"><svg t="1732856070969" class="icon" viewBox="0 0 1024 1024" version="1.1" xmlns="http://www.w3.org/2000/svg" p-id="28199" xmlns:xlink="http://www.w3.org/1999/xlink" width="256" height="256"><path d="M869.975415 936.785171h-287.219513a12.487805 12.487805 0 0 1-12.487804-12.487805V330.727024a12.487805 12.487805 0 0 1 12.487804-12.487804h287.219513a12.487805 12.487805 0 0 1 12.487805 12.487804v593.570342a12.487805 12.487805 0 0 1-12.487805 12.487805z m-87.414635-99.902439V418.141659h-112.390243v418.741073h112.390243zM503.683122 936.785171h-349.658537a12.487805 12.487805 0 0 1-12.487805-12.487805V80.970927a12.487805 12.487805 0 0 1 12.487805-12.487805h349.658537a12.487805 12.487805 0 0 1 12.487805 12.487805v843.326439a12.487805 12.487805 0 0 1-12.487805 12.487805z m-87.389659-99.902439V168.385561h-174.829268v668.497171h174.829268z" fill="#2c2c2c" p-id="28200" data-spm-anchor-id="a313x.search_index.0.i26.54fb3a81CPrGqP" class=""></path><path d="M590.922927 157.995707l129.948097 130.322732a18.282146 18.282146 0 0 0 2.347708 1.998049l1.323707 1.273756c0.39961 0.374634 1.024 0.449561 1.82322 0.274732 0.79922 0.174829 1.42361 0.099902 1.823219-0.274732l1.323707-1.273756a18.282146 18.282146 0 0 0 2.347708-1.998049l129.948097-130.322732a12.487805 12.487805 0 0 0 0-17.657756L826.442927 104.997463a12.487805 12.487805 0 0 0-17.657756 0L766.251707 147.530927V80.970927a12.487805 12.487805 0 0 0-12.487805-12.487805h-49.951219a12.487805 12.487805 0 0 0-12.487805 12.487805v71.430244l-47.403707-47.403708a12.487805 12.487805 0 0 0-17.657756 0L590.922927 140.362927a12.487805 12.487805 0 0 0 0 17.657756z" fill="#2977f9" p-id="28201" data-spm-anchor-id="a313x.search_index.0.i27.54fb3a81CPrGqP" class="selected"></path></svg>