<?xml version="1.0" standalone="no"?><!DOCTYPE svg PUBLIC "-//W3C//DTD SVG 1.1//EN" "http://www.w3.org/Graphics/SVG/1.1/DTD/svg11.dtd"><svg t="1734489405451" class="icon" viewBox="0 0 1024 1024" version="1.1" xmlns="http://www.w3.org/2000/svg" p-id="11221" xmlns:xlink="http://www.w3.org/1999/xlink" width="256" height="256"><path d="M859.904 168H164.096a8.064 8.064 0 0 0-8.128 8v60.032c0 4.352 3.648 7.936 8.128 7.936h695.808c4.48 0 8.128-3.584 8.128-7.936V176a8.064 8.064 0 0 0-8.128-8zM518.272 355.008a8 8 0 0 0-12.544 0L393.728 496.64a8 8 0 0 0 6.272 12.928h73.92v338.368c0 4.416 3.584 8 8 8h59.968a8 8 0 0 0 8-8V509.696H624c6.72 0 10.368-7.68 6.272-12.928l-112-141.76z" p-id="11222" fill="#515151"></path></svg>