<?xml version="1.0" standalone="no"?><!DOCTYPE svg PUBLIC "-//W3C//DTD SVG 1.1//EN" "http://www.w3.org/Graphics/SVG/1.1/DTD/svg11.dtd"><svg t="1734489409506" class="icon" viewBox="0 0 1024 1024" version="1.1" xmlns="http://www.w3.org/2000/svg" p-id="11431" xmlns:xlink="http://www.w3.org/1999/xlink" width="256" height="256"><path d="M859.904 473.984H164.096a8.064 8.064 0 0 0-8.128 8v60.032c0 4.416 3.648 8 8.128 8h695.808c4.48 0 8.128-3.584 8.128-8V481.92a8.064 8.064 0 0 0-8.128-8zM506.24 399.36a7.168 7.168 0 0 0 11.328 0l100.8-127.488a7.232 7.232 0 0 0-5.76-11.712h-62.72V104A8 8 0 0 0 542.08 96H481.92a8 8 0 0 0-8 8v156.032h-62.784a7.232 7.232 0 0 0-5.76 11.648L506.368 399.36z m11.392 225.408a7.168 7.168 0 0 0-11.328 0l-100.736 127.616a7.232 7.232 0 0 0 5.696 11.648h62.72v156.032c0 4.416 3.584 8 7.936 8h60.032a8 8 0 0 0 8-8v-156.032h62.784c6.016 0 9.408-6.976 5.76-11.648L517.632 624.64z" p-id="11432" fill="#515151"></path></svg>