<?xml version="1.0" standalone="no"?><!DOCTYPE svg PUBLIC "-//W3C//DTD SVG 1.1//EN" "http://www.w3.org/Graphics/SVG/1.1/DTD/svg11.dtd"><svg t="1734489400601" class="icon" viewBox="0 0 1024 1024" version="1.1" xmlns="http://www.w3.org/2000/svg" p-id="11011" xmlns:xlink="http://www.w3.org/1999/xlink" width="256" height="256"><path d="M859.904 780.032H164.096a8.064 8.064 0 0 0-8.128 7.936v60.032c0 4.416 3.648 8 8.128 8h695.808c4.48 0 8.128-3.584 8.128-8v-60.032a8.064 8.064 0 0 0-8.128-7.936z m-354.176-111.04c3.2 4.096 9.344 4.096 12.544 0l112-141.696a8 8 0 0 0-6.272-12.928H549.888V176a8 8 0 0 0-8-8H481.92a8 8 0 0 0-8 8v338.304H400a8 8 0 0 0-6.272 12.928l112 141.76z" p-id="11012" fill="#515151"></path></svg>