<?xml version="1.0" standalone="no"?><!DOCTYPE svg PUBLIC "-//W3C//DTD SVG 1.1//EN" "http://www.w3.org/Graphics/SVG/1.1/DTD/svg11.dtd"><svg t="1732852811796" class="icon" viewBox="0 0 1024 1024" version="1.1" xmlns="http://www.w3.org/2000/svg" p-id="14337" xmlns:xlink="http://www.w3.org/1999/xlink" width="256" height="256"><path d="M448.051984 255.920025V97.95339c0-7.037801-0.6398-14.075601-2.5592-21.113402-9.597001-43.506404-48.624805-76.776007-95.33021-76.776008h-252.081224c-46.705405 0-85.733208 33.269603-95.33021 76.776008-1.9194 7.037801-2.5592 14.075601-2.5592 21.113402v828.54108c0 7.037801 0.6398 13.435801 1.9194 20.473602 9.597001 43.506404 49.264605 76.776007 95.97001 76.776008h252.081224c46.705405 0 86.373008-33.269603 95.97001-76.776008 1.2796-7.037801 1.9194-13.435801 1.9194-20.473602v-158.606435h-76.776008v158.606435c0 11.516401-9.597001 20.473602-21.113402 20.473602h-252.081224c-11.516401 0-21.113402-8.957201-21.113402-20.473602V97.95339c0-11.516401 9.597001-21.113402 21.113402-21.113402h252.081224c11.516401 0 21.113402 9.597001 21.113402 21.113402v157.966635h76.776008zM652.596064 255.920025V97.95339c0-11.516401 9.597001-21.113402 21.113402-21.113402h252.081224c11.516401 0 21.113402 9.597001 21.113402 21.113402v828.54108c0 11.516401-9.597001 20.473602-21.113402 20.473602h-252.081224c-11.516401 0-21.113402-8.957201-21.113402-20.473602v-158.606435H575.820056v158.606435c0 7.037801 0.6398 13.435801 1.9194 20.473602 9.597001 43.506404 49.264605 76.776007 95.97001 76.776008h252.081224c46.705405 0 86.373008-33.269603 95.97001-76.776008 1.2796-7.037801 1.9194-13.435801 1.9194-20.473602V97.95339c0-7.037801-0.6398-14.075601-2.5592-21.113402-9.597001-43.506404-48.624805-76.776007-95.33021-76.776008h-252.081224c-46.705405 0-85.733208 33.269603-95.33021 76.776008-1.9194 7.037801-2.5592 14.075601-2.5592 21.113402v157.966635h76.776008z" fill="#2c2c2c" p-id="14338" data-spm-anchor-id="a313x.search_index.0.i7.3d743a81NxkQmu" class=""></path><path d="M901.414308 475.371446a11.452421 11.452421 0 0 0-11.452421-11.452421l-76.776008-0.06398a11.452421 11.452421 0 0 1-11.452421-11.452421v-44.210184a11.516401 11.516401 0 0 0-16.122961-10.492721L552.979194 501.283349a11.516401 11.516401 0 0 0 0 20.921462L785.674477 626.044361a11.516401 11.516401 0 0 0 16.122961-10.428741v-44.722024c0-6.334021 5.1184-11.452421 11.452421-11.452421l76.776008 0.06398c6.334021 0 11.452421-5.1184 11.452421-11.452421l-0.06398-72.681288zM122.457732 475.371446c0-6.334021 5.1184-11.452421 11.452421-11.452421l76.776008-0.06398c6.334021 0 11.452421-5.1184 11.452421-11.452421v-44.210184a11.516401 11.516401 0 0 1 16.122961-10.492721L470.892846 501.283349a11.516401 11.516401 0 0 1 0 20.921462L238.197563 626.044361a11.452421 11.452421 0 0 1-16.122961-10.428741v-44.722024a11.452421 11.452421 0 0 0-11.452421-11.452421l-76.776008 0.06398a11.452421 11.452421 0 0 1-11.452421-11.452421l0.06398-72.681288z" fill="#2977f9" p-id="14339" data-spm-anchor-id="a313x.search_index.0.i8.3d743a81NxkQmu" class="selected"></path></svg>